<?xml version="1.0" standalone="no"?>
<!DOCTYPE svg PUBLIC "-//W3C//DTD SVG 20010904//EN"
 "http://www.w3.org/TR/2001/REC-SVG-20010904/DTD/svg10.dtd">
<svg version="1.0" xmlns="http://www.w3.org/2000/svg"
 width="1350.000000pt" height="1350.000000pt" viewBox="0 0 1350.000000 1350.000000"
 preserveAspectRatio="xMidYMid meet">
<metadata>
Created by potrace 1.14, written by Peter Selinger 2001-2017
</metadata>
<g transform="translate(0.000000,1350.000000) scale(0.100000,-0.100000)"
fill="#000000" stroke="none">
<path d="M4480 10438 c-13 -5 -30 -6 -37 -4 -7 3 -13 1 -13 -4 0 -6 -5 -10
-11 -10 -17 0 -133 -53 -137 -62 -2 -4 -8 -8 -13 -8 -13 0 -139 -129 -139
-141 0 -6 -4 -7 -10 -4 -5 3 -10 -1 -10 -9 0 -9 -3 -16 -7 -16 -5 0 -17 -13
-28 -29 -10 -16 -23 -27 -27 -25 -4 3 -8 -2 -8 -10 0 -8 -9 -18 -20 -21 -11
-4 -18 -11 -15 -16 4 -5 3 -9 -2 -9 -4 0 -23 -14 -40 -31 -18 -16 -33 -26 -33
-22 0 4 -4 4 -8 -2 -12 -17 -49 -34 -57 -27 -4 4 -10 7 -13 7 -16 1 -72 36
-72 45 0 5 -7 7 -15 4 -8 -4 -15 -2 -15 3 0 5 -19 19 -42 32 -24 12 -59 31
-78 43 -19 11 -36 20 -37 19 -2 0 -8 1 -15 4 -7 2 -35 11 -63 20 -27 9 -61 19
-75 21 -32 5 -91 16 -110 21 -48 11 -212 4 -275 -11 -5 -2 -27 -6 -47 -11 -21
-4 -38 -12 -38 -18 0 -6 -3 -8 -6 -4 -4 3 -19 0 -34 -8 -15 -8 -30 -11 -34 -8
-3 4 -6 2 -6 -4 0 -6 -11 -14 -25 -17 -17 -4 -23 -11 -19 -19 4 -7 4 -9 -1 -5
-4 4 -14 3 -22 -3 -7 -6 -13 -9 -13 -6 0 18 -144 -152 -145 -172 -1 -3 -9 -21
-18 -38 -10 -18 -14 -33 -10 -33 5 0 3 -4 -4 -8 -6 -4 -13 -20 -16 -37 -8 -51
-29 -80 -54 -77 -13 2 -23 8 -23 14 0 6 -3 8 -6 5 -4 -3 -16 0 -28 8 -11 8
-28 15 -38 15 -10 0 -18 5 -18 10 0 6 -9 10 -20 10 -11 0 -20 5 -20 11 0 5 -4
7 -10 4 -5 -3 -10 -2 -10 4 0 6 -7 8 -15 5 -8 -4 -15 -1 -15 7 0 7 -3 10 -6 6
-4 -3 -24 1 -46 10 -21 8 -41 13 -44 10 -3 -3 -23 1 -45 8 -21 8 -39 10 -39 5
0 -6 -9 -6 -22 -1 -26 9 -75 8 -85 -2 -3 -4 -12 -2 -20 4 -10 9 -17 8 -28 -1
-12 -10 -15 -10 -15 1 0 9 -3 10 -8 4 -4 -5 -16 -11 -27 -12 -48 -4 -82 -10
-93 -17 -7 -4 -12 -4 -12 0 0 3 -7 1 -15 -6 -8 -7 -15 -10 -15 -7 0 4 -20 -2
-45 -13 -25 -11 -45 -16 -45 -12 0 4 -4 2 -8 -4 -4 -6 -28 -21 -54 -33 -27
-12 -48 -26 -48 -32 0 -6 -4 -8 -8 -5 -5 3 -18 -2 -28 -12 -10 -10 -39 -32
-63 -50 -25 -17 -41 -32 -35 -32 5 0 2 -6 -6 -13 -18 -15 -35 -40 -57 -89 -10
-21 -21 -38 -25 -38 -4 0 -5 -9 -3 -20 2 -11 -1 -20 -7 -20 -5 0 -8 -6 -5 -14
3 -7 2 -17 -3 -22 -12 -12 -20 -96 -23 -238 l-2 -120 -45 -3 c-25 -2 -77 -4
-117 -6 -40 -2 -75 -6 -79 -10 -4 -4 -13 -2 -21 4 -7 6 -13 8 -13 3 0 -5 -12
-9 -28 -10 -52 -2 -151 -24 -158 -35 -3 -5 -9 -7 -14 -4 -5 3 -20 -1 -33 -10
-13 -8 -27 -12 -30 -8 -4 3 -7 1 -7 -5 0 -7 -7 -12 -15 -12 -8 0 -15 -4 -15
-10 0 -5 -6 -7 -14 -4 -7 3 -20 -1 -27 -8 -8 -8 -31 -25 -51 -39 -40 -27 -134
-105 -152 -127 -6 -7 -23 -26 -38 -42 -16 -15 -28 -33 -28 -38 0 -5 -9 -17
-20 -27 -12 -10 -18 -25 -16 -32 3 -7 1 -13 -3 -13 -11 0 -33 -60 -23 -60 4 0
1 -4 -6 -9 -7 -4 -14 -19 -14 -32 -1 -13 -5 -28 -9 -34 -8 -11 -7 -235 1 -235
3 0 7 -11 8 -26 1 -14 6 -34 12 -44 6 -10 11 -30 12 -44 1 -15 6 -26 10 -26 4
0 8 -4 8 -9 0 -5 4 -20 9 -33 5 -13 10 -27 11 -33 2 -5 10 -15 19 -22 9 -7 12
-13 7 -13 -4 0 -1 -10 7 -23 8 -13 12 -28 9 -33 -10 -14 -72 -56 -72 -49 0 4
-7 -1 -16 -9 -8 -9 -22 -16 -30 -16 -8 0 -12 -4 -9 -10 3 -5 1 -10 -5 -10 -14
0 -81 -51 -127 -97 -17 -17 -34 -28 -37 -25 -3 3 -6 0 -6 -6 0 -6 -10 -20 -22
-32 -12 -11 -19 -20 -16 -20 3 0 -9 -16 -28 -37 -18 -20 -31 -40 -29 -44 3 -4
2 -9 -3 -11 -11 -4 -52 -86 -52 -103 0 -8 -4 -15 -8 -15 -5 0 -9 -6 -9 -12 -1
-7 -7 -37 -15 -67 -17 -63 -16 -173 2 -216 7 -16 15 -39 17 -49 2 -11 11 -28
20 -38 9 -10 13 -18 9 -18 -4 0 7 -18 24 -40 17 -22 29 -40 26 -40 -4 0 8 -16
26 -36 18 -20 32 -42 30 -48 -2 -6 -1 -8 3 -4 4 4 17 -4 30 -18 12 -13 28 -24
34 -24 7 0 9 -4 6 -10 -3 -5 -1 -10 4 -10 6 0 40 -20 75 -45 35 -24 67 -41 71
-37 10 10 -1 -43 -24 -117 -11 -35 -18 -68 -15 -72 2 -4 0 -10 -6 -14 -5 -3
-10 -16 -10 -28 0 -12 -1 -62 -2 -112 -3 -116 13 -216 38 -245 7 -8 14 -19 15
-25 8 -36 12 -45 20 -45 5 0 8 -3 7 -7 -7 -22 107 -153 132 -153 5 0 10 -4 10
-9 0 -11 104 -63 135 -68 11 -2 27 -6 35 -10 19 -8 49 -14 75 -16 23 -2 45
-19 38 -29 -2 -5 -1 -8 4 -8 4 0 9 -32 10 -71 1 -39 7 -77 13 -84 8 -9 8 -15
0 -20 -6 -3 -8 -11 -4 -16 3 -5 11 -6 17 -2 9 5 9 3 0 -8 -7 -8 -8 -20 -4 -28
5 -7 6 -22 4 -32 -3 -12 0 -19 8 -19 11 0 11 -2 -1 -10 -10 -7 -11 -10 -2 -10
8 0 11 -9 8 -25 -3 -13 0 -28 6 -31 7 -5 8 -2 3 6 -5 9 -4 11 3 6 8 -5 8 -15
2 -32 -7 -17 -7 -23 0 -19 9 5 15 -23 11 -47 0 -5 4 -8 10 -8 5 0 7 -5 4 -10
-4 -6 -1 -18 7 -27 11 -14 11 -16 -2 -8 -12 7 -13 6 -3 -7 7 -8 9 -19 5 -23
-4 -5 -1 -5 6 -1 8 5 12 -2 12 -23 0 -17 4 -31 9 -31 6 0 8 -9 6 -20 -2 -11 3
-24 13 -30 13 -7 14 -9 3 -10 -11 0 -10 -4 5 -16 10 -8 13 -12 5 -8 -11 5 -10
1 2 -17 19 -27 22 -43 6 -33 -6 3 -3 -6 7 -21 10 -16 19 -35 20 -43 2 -8 6
-18 11 -21 4 -3 10 -17 12 -31 1 -14 6 -27 10 -30 3 -3 8 -14 9 -25 2 -11 8
-24 13 -29 5 -6 9 -18 9 -28 0 -10 4 -18 10 -18 5 0 9 -3 9 -7 -3 -18 2 -34 9
-30 4 3 8 -5 8 -16 3 -38 10 -58 23 -66 7 -5 13 -12 13 -17 2 -24 21 -64 31
-64 8 0 7 -3 -1 -9 -11 -6 -10 -10 3 -15 10 -3 15 -12 11 -21 -3 -10 1 -15 12
-16 10 0 12 -3 5 -6 -9 -3 -6 -11 8 -26 11 -12 17 -27 15 -34 -3 -7 2 -13 10
-13 8 0 12 -4 9 -10 -3 -5 0 -10 7 -10 9 0 9 -3 -2 -10 -13 -8 -12 -10 3 -10
10 0 15 -4 12 -10 -3 -5 -1 -10 5 -10 6 0 8 -4 5 -10 -3 -5 -1 -10 4 -10 6 0
11 -5 11 -11 0 -5 -6 -7 -12 -3 -8 4 -10 3 -5 -2 5 -5 14 -9 20 -9 7 0 11 -8
9 -18 -2 -11 4 -17 15 -18 11 0 13 -3 5 -6 -9 -3 -7 -10 9 -24 15 -13 17 -19
8 -19 -8 -1 -3 -7 11 -15 14 -8 19 -14 13 -15 -8 0 -5 -8 7 -20 11 -11 20 -27
20 -35 0 -9 7 -18 16 -22 8 -3 13 -12 10 -19 -3 -7 4 -16 14 -19 11 -3 19 -9
18 -13 -3 -11 24 -56 39 -65 7 -5 11 -12 8 -18 -4 -5 -2 -9 4 -9 6 0 25 -22
43 -50 18 -27 36 -50 40 -50 5 0 8 -7 8 -15 0 -8 5 -15 10 -15 6 0 10 -7 10
-16 0 -8 5 -12 10 -9 6 3 10 0 10 -8 0 -8 14 -26 32 -41 17 -14 29 -26 24 -26
-4 0 6 -12 21 -26 15 -15 27 -30 25 -35 -1 -5 5 -9 13 -9 8 0 15 -4 15 -10 0
-13 157 -170 170 -170 10 0 14 -15 11 -34 -1 -5 5 -4 13 4 14 10 16 10 16 -5
0 -10 3 -16 6 -13 3 3 23 -12 45 -34 21 -22 39 -36 39 -31 0 4 5 0 11 -9 5
-10 17 -18 25 -18 8 0 13 -4 10 -9 -3 -5 5 -12 19 -15 14 -4 25 -14 26 -24 0
-9 3 -12 5 -5 4 8 11 7 23 -5 10 -9 16 -20 14 -24 -2 -4 3 -5 11 -2 9 3 16 1
16 -5 0 -6 8 -11 18 -11 10 0 28 -9 40 -20 12 -11 28 -20 36 -20 7 0 17 -7 20
-16 3 -8 10 -12 16 -9 5 3 10 2 10 -3 0 -11 49 -34 60 -27 4 3 10 -2 14 -10 3
-8 12 -15 21 -15 8 0 15 -5 15 -11 0 -5 4 -8 9 -4 5 3 16 -2 24 -10 9 -8 20
-15 26 -15 5 0 22 -5 38 -11 15 -6 28 -9 29 -7 0 2 8 -5 18 -14 10 -10 25 -18
34 -18 10 0 28 -8 41 -17 14 -9 21 -12 18 -6 -4 6 15 0 43 -13 57 -27 64 -29
54 -11 -5 8 -2 7 10 -2 15 -12 579 -14 3984 -12 2182 0 3977 1 3990 1 12 0 22
5 22 11 0 5 5 7 10 4 6 -4 18 -1 26 6 8 6 17 9 20 6 3 -3 24 3 47 13 23 10 45
16 49 14 4 -3 8 -1 8 4 0 12 49 34 61 27 5 -4 9 -2 9 3 0 6 11 13 25 16 14 4
25 11 25 17 0 6 4 8 9 4 5 -3 16 2 25 11 9 8 20 12 26 9 5 -3 10 -1 10 5 0 6
5 8 10 5 6 -3 10 -2 10 3 0 6 11 13 25 16 14 4 25 11 25 17 0 6 5 7 10 4 6 -3
10 -1 10 5 0 6 5 8 10 5 6 -3 10 -1 10 4 0 6 5 11 12 11 6 0 20 8 31 17 15 13
19 14 13 3 -6 -11 -4 -11 6 1 7 9 18 18 23 20 6 2 9 8 7 12 -1 5 2 6 7 3 5 -4
20 4 32 16 12 13 18 16 13 8 -4 -8 8 -3 28 12 19 15 39 24 43 20 5 -4 5 -2 1
5 -3 7 2 14 14 18 11 4 17 11 14 17 -5 8 -1 9 10 5 9 -4 15 -3 13 1 -3 4 1 13
9 20 8 7 14 10 14 7 0 -5 20 11 69 56 15 15 40 34 55 44 15 10 25 20 22 22 -8
8 18 31 30 26 6 -2 14 6 17 17 3 12 10 19 15 16 5 -3 14 6 20 19 7 14 16 25
22 25 6 0 9 4 6 9 -3 5 4 11 15 14 11 3 23 15 26 26 3 12 12 21 21 21 8 0 12
3 9 6 -4 4 9 22 28 39 19 18 32 35 29 38 -3 3 4 8 15 12 12 3 19 10 16 15 -3
4 9 22 25 40 16 18 27 37 23 43 -3 5 -1 7 5 3 6 -3 19 7 28 24 10 16 22 30 26
30 4 0 8 6 8 13 0 7 9 20 20 30 11 9 20 24 20 34 0 9 3 13 7 10 6 -7 21 14 46
66 7 15 16 24 20 20 4 -3 7 -1 7 6 0 6 12 30 27 54 15 23 28 48 29 56 2 8 6
17 11 20 4 3 15 15 23 25 13 18 13 19 0 11 -8 -4 -5 2 8 14 12 12 20 26 17 32
-4 5 -2 9 3 9 6 0 15 14 21 31 6 17 14 28 19 25 5 -3 9 1 9 9 0 8 -5 11 -11 8
-6 -4 -3 3 7 14 9 11 14 23 10 27 -5 4 -1 6 7 4 8 -1 14 3 12 10 -1 6 2 12 8
12 5 0 7 7 4 15 -4 8 1 17 9 21 9 3 14 15 12 29 -1 13 3 23 8 22 6 -1 12 4 13
11 1 6 2 17 3 23 0 5 5 8 10 5 5 -4 7 3 4 14 -3 12 1 22 10 26 9 3 13 12 10
20 -3 8 0 14 7 14 6 0 8 5 5 10 -3 6 -1 10 5 10 6 0 9 4 5 9 -3 5 -1 12 5 16
5 3 10 17 10 31 0 14 4 22 10 19 6 -4 10 5 10 20 0 15 4 24 10 20 5 -3 7 0 4
8 -3 8 0 18 5 22 6 3 9 10 6 15 -3 5 2 21 11 35 9 14 13 25 8 25 -4 0 -3 5 4
12 7 7 12 23 12 36 0 15 4 21 12 16 7 -5 9 -2 5 8 -3 9 2 26 10 39 13 17 13
20 2 14 -11 -6 -10 -4 2 11 8 10 14 29 13 41 0 12 2 21 5 18 4 -2 12 9 18 26
9 22 8 27 0 22 -8 -5 -8 -2 0 9 7 8 10 18 6 21 -3 4 -1 7 6 7 8 0 11 7 7 15
-3 8 -2 15 3 15 7 0 9 7 13 50 1 11 6 20 10 20 4 0 7 8 7 18 1 31 7 61 14 68
4 4 7 18 7 30 0 13 5 26 10 29 8 5 7 11 -1 21 -7 9 -8 14 -1 14 6 0 9 9 7 20
-2 11 0 20 4 20 5 0 7 18 6 40 -1 22 1 37 5 35 4 -2 6 9 4 25 -2 19 1 30 9 30
7 0 8 3 2 8 -15 11 -17 32 -3 32 9 0 8 4 -2 10 -9 6 -11 10 -3 10 7 0 10 7 7
15 -4 8 -1 15 6 15 6 0 8 5 5 10 -4 6 -12 8 -18 4 -7 -3 -3 2 7 10 15 12 16
16 5 16 -12 0 -12 2 1 10 10 7 11 10 2 10 -9 0 -8 7 4 25 9 15 13 25 8 24 -21
-4 -26 2 -15 15 10 11 10 20 1 37 -7 12 -8 19 -2 15 5 -3 12 4 15 15 3 12 10
18 16 14 6 -3 11 -1 11 4 0 6 3 10 8 9 12 -3 92 42 92 52 0 6 5 10 11 10 9 0
116 105 183 180 31 34 107 161 102 169 -3 5 1 11 9 15 8 3 15 15 15 26 0 11 5
20 10 20 6 0 9 3 8 8 -1 4 5 27 12 52 8 25 14 48 16 53 1 4 3 8 4 10 1 1 3 16
4 32 1 17 4 35 7 40 7 13 3 151 -5 188 -3 15 -8 37 -10 50 -2 12 -11 42 -20
67 -9 25 -18 49 -19 55 -1 5 -8 16 -14 23 -7 7 -13 20 -13 28 0 8 -4 14 -10
14 -19 0 -28 63 -13 93 7 15 12 27 9 27 -2 0 25 52 60 116 35 64 64 118 64
119 0 1 8 20 17 41 9 22 17 41 18 44 1 3 4 12 7 20 18 45 27 83 23 90 -3 5 -1
10 4 12 18 6 35 263 19 284 -5 7 -7 16 -6 20 4 13 -25 114 -33 114 -4 0 -9 10
-13 23 -3 12 -17 34 -31 49 -14 15 -25 29 -25 32 0 2 -16 21 -35 42 -19 20
-35 33 -35 28 0 -5 -6 0 -14 11 -8 11 -31 29 -53 40 -21 11 -41 24 -45 30 -5
7 -8 7 -8 0 0 -5 -4 -4 -9 3 -4 7 -18 14 -29 15 -12 1 -22 5 -22 9 0 4 -3 7
-7 7 -5 -1 -11 0 -15 1 -5 1 -14 3 -20 4 -16 1 -14 20 8 141 14 72 9 197 -9
231 -9 17 -13 34 -10 38 4 3 1 6 -6 6 -7 0 -10 4 -6 9 3 5 -5 17 -17 25 -12 9
-19 16 -15 16 4 0 -12 20 -36 45 -25 25 -50 45 -56 45 -7 0 -9 5 -6 10 3 6 -3
10 -14 10 -12 0 -21 4 -21 9 0 5 -10 12 -22 16 -29 9 -25 8 -73 29 -22 10 -51
20 -64 22 -14 3 -29 7 -33 10 -10 7 -64 17 -90 18 -10 0 -18 3 -18 6 0 8 -118
5 -126 -3 -4 -4 -18 -7 -31 -7 -14 0 -34 -5 -45 -11 -16 -9 -19 -8 -12 3 6 10
5 11 -8 1 -8 -7 -18 -10 -21 -6 -4 3 -7 2 -7 -4 0 -5 -7 -10 -15 -10 -13 0
-42 57 -50 99 -2 9 -8 25 -14 36 -6 11 -7 22 -4 26 3 3 1 6 -6 6 -7 0 -9 5 -6
10 3 6 1 10 -4 10 -6 0 -11 11 -11 25 0 14 -5 25 -11 25 -5 0 -7 5 -4 11 4 5
0 18 -8 27 -9 9 -15 19 -15 22 0 11 -27 66 -40 83 -9 9 -12 17 -8 17 4 0 -2
13 -13 29 -12 16 -21 34 -21 40 0 5 -6 14 -12 18 -7 4 -31 31 -53 58 -22 28
-47 56 -57 63 -9 7 -23 18 -30 25 -7 7 -29 24 -48 37 -19 13 -37 27 -40 31 -8
11 -139 69 -156 69 -8 0 -23 4 -33 10 -31 16 -83 23 -176 23 -75 0 -140 -6
-140 -13 0 -2 -14 -5 -53 -14 -12 -3 -28 -8 -35 -13 -6 -4 -15 -8 -19 -9 -5
-1 -10 -3 -13 -4 -6 -3 -12 -5 -42 -15 -13 -4 -23 -11 -23 -16 0 -5 -3 -9 -7
-8 -16 2 -53 -14 -53 -22 0 -5 -3 -8 -7 -7 -5 0 -24 -6 -43 -15 -19 -8 -39
-13 -43 -10 -11 6 -42 75 -39 86 1 4 -2 7 -8 7 -5 0 -10 9 -10 19 0 11 -4 22
-9 26 -6 3 -20 27 -33 53 -13 26 -26 49 -30 50 -5 2 -8 10 -8 18 0 8 -4 14 -8
14 -5 0 -15 12 -23 28 -8 15 -33 46 -55 69 -23 23 -39 45 -35 49 3 4 1 4 -5 1
-6 -3 -20 3 -32 13 -12 11 -25 20 -31 20 -5 0 -11 3 -13 8 -7 16 -165 85 -178
77 -5 -3 -11 -1 -15 5 -3 5 -22 10 -41 10 -20 0 -34 5 -34 13 0 9 -2 9 -8 0
-4 -7 -19 -10 -32 -8 -58 11 -195 1 -216 -16 -8 -7 -13 -6 -16 2 -3 9 -9 9
-23 1 -11 -6 -46 -20 -77 -32 -32 -12 -58 -27 -58 -32 0 -5 -5 -6 -11 -2 -6 3
-14 3 -18 -2 -3 -5 -36 -29 -73 -53 -37 -23 -72 -49 -79 -57 -6 -7 -15 -12
-19 -9 -4 3 -10 -1 -13 -9 -7 -16 -90 -76 -107 -76 -15 0 -41 26 -33 34 4 3 0
6 -7 6 -7 0 -10 3 -7 7 4 3 -2 16 -13 28 -12 13 -22 32 -23 44 -1 11 -4 21 -7
21 -4 0 -17 21 -30 48 -13 26 -26 49 -29 52 -3 3 -13 18 -21 35 -30 60 -103
134 -169 173 -46 27 -47 27 -271 29 -213 2 -320 -7 -320 -27 0 -5 -10 -12 -22
-16 -43 -13 -129 -90 -223 -196 -44 -50 -52 -53 -80 -26 -14 13 -25 26 -25 30
0 5 -10 19 -22 34 -13 14 -22 28 -20 30 2 4 -34 48 -75 90 -13 13 -23 29 -23
35 0 7 -3 10 -6 7 -3 -3 -16 4 -30 17 l-25 23 -692 1 c-694 0 -729 -2 -739
-34 -2 -5 -7 -9 -11 -7 -5 1 -6 -1 -3 -6 3 -5 -8 -22 -24 -37 -17 -16 -30 -35
-30 -42 0 -8 -4 -11 -10 -8 -5 3 -10 2 -10 -4 0 -5 -25 -35 -56 -65 l-56 -55
-24 35 c-14 20 -26 41 -27 47 -1 7 -10 19 -19 28 -10 9 -15 19 -11 23 3 3 0 6
-7 6 -7 0 -11 2 -8 5 3 3 -17 29 -45 58 l-49 52 -469 0 -469 0 -15 -22 c-9
-12 -22 -28 -30 -36 -8 -8 -11 -17 -8 -21 4 -3 2 -6 -3 -6 -11 0 -47 -76 -47
-97 0 -7 -4 -13 -9 -13 -4 0 -8 -7 -8 -15 0 -8 -5 -15 -11 -15 -5 0 -8 -4 -4
-9 10 -17 -27 -29 -57 -19 -15 6 -28 14 -28 18 0 5 -9 12 -20 15 -11 4 -18 11
-15 16 4 5 -1 9 -9 9 -9 0 -16 7 -16 16 0 8 -4 13 -8 10 -5 -3 -18 5 -29 17
-29 33 -76 67 -90 67 -7 0 -13 5 -13 12 0 6 -3 8 -7 5 -3 -4 -11 0 -17 7 -6 8
-45 25 -86 39 -68 23 -90 25 -236 24 -89 0 -172 -4 -184 -9z"/>
</g>
</svg>
